<svg width="1101" height="732" viewBox="0 0 1101 732" fill="none" xmlns="http://www.w3.org/2000/svg">
<g id="undraw_finish_line_katerina_limpitsouni_xy20 1">
<g id="bg">
<path d="M628.767 174.453C572.737 172.461 519.373 154.375 468.45 134.626C417.527 114.876 367.02 92.9023 312.332 82.4173C277.157 75.6727 236.926 74.7203 208.59 93.5776C181.311 111.76 172.498 143.059 167.762 172.132C164.195 194.003 162.1 217.016 171.866 237.492C178.653 251.709 190.687 263.657 199.015 277.276C227.991 324.653 207.508 383.078 176.116 429.338C161.399 451.044 144.301 471.762 132.933 494.845C121.566 517.927 116.311 544.412 126.259 567.98C136.111 591.356 159.598 608.88 185.042 621.218C236.718 646.275 297.588 653.452 356.986 657.513C488.431 666.509 620.569 662.612 752.36 658.716C801.136 657.27 850.119 655.807 898.098 648.266C924.746 644.075 952.25 637.426 971.599 621.383C996.152 601.01 1002.24 566.508 985.78 540.966C958.18 498.118 881.892 487.477 862.577 441.485C851.963 416.178 862.863 387.978 878.299 364.506C911.405 314.151 966.89 269.969 969.807 212.401C971.816 172.868 945.142 133.275 903.899 114.565C860.672 94.9542 800.72 97.4218 768.844 129.881C735.963 163.266 678.244 176.124 628.767 174.453Z" fill="white" fill-opacity="0.7"/>
<path d="M628.767 174.453C572.737 172.461 519.373 154.375 468.45 134.626C417.527 114.876 367.02 92.9023 312.332 82.4173C277.157 75.6727 236.926 74.7203 208.59 93.5776C181.311 111.76 172.498 143.059 167.762 172.132C164.195 194.003 162.1 217.016 171.866 237.492C178.653 251.709 190.687 263.657 199.015 277.276C227.991 324.653 207.508 383.078 176.116 429.338C161.399 451.044 144.301 471.762 132.933 494.845C121.566 517.927 116.311 544.412 126.259 567.98C136.111 591.356 159.598 608.88 185.042 621.218C236.718 646.275 297.588 653.452 356.986 657.513C488.431 666.509 620.569 662.612 752.36 658.716C801.136 657.27 850.119 655.807 898.098 648.266C924.746 644.075 952.25 637.426 971.599 621.383C996.152 601.01 1002.24 566.508 985.78 540.966C958.18 498.118 881.892 487.477 862.577 441.485C851.963 416.178 862.863 387.978 878.299 364.506C911.405 314.151 966.89 269.969 969.807 212.401C971.816 172.868 945.142 133.275 903.899 114.565C860.672 94.9542 800.72 97.4218 768.844 129.881C735.963 163.266 678.244 176.124 628.767 174.453Z" fill="url(#paint0_linear)" fill-opacity="0.1"/>
</g>
<g id="hair_bottom">
<path id="Vector" d="M593.837 198.978C598.667 191.759 597.412 181.668 592.479 174.484C587.545 167.301 579.617 162.783 571.439 159.866C560.412 155.937 548.252 154.595 536.923 157.547C527.904 159.892 519.803 164.799 511.304 168.59C496.268 175.299 479.919 178.552 463.46 178.111C445.189 177.6 425.17 172.918 409.843 182.906C381.783 201.159 394.264 250.838 367.719 271.186C360.562 276.673 351.552 279.07 343.589 283.302C335.627 287.535 328.08 294.9 328.27 303.918C328.357 308.246 330.261 312.374 332.598 316.035C342.551 331.813 361.159 341.576 379.793 341.394C398.427 341.212 416.611 331.303 427.352 316.053C430.043 312.236 432.415 307.986 436.318 305.442C444.107 300.335 454.372 303.91 463.668 304.671C484.361 306.359 505.064 290.824 509.184 270.441C510.915 261.743 510.612 251.349 517.614 245.887C523.265 241.482 531.219 242.425 538.385 241.672C551.489 240.314 561.832 232.152 568.946 221.489C572.209 216.599 572.59 210.757 577.038 206.906C581.833 202.673 589.25 205.798 593.837 198.978Z" fill="#3F3D56"/>
<g id="Group">
<path id="Vector_2" opacity="0.1" d="M446.15 179.781C453.74 179.989 461.33 179.409 468.8 178.05C466.74 178.111 464.663 178.111 462.594 178.05C448.253 177.652 432.839 174.692 419.458 178.258C428.286 178.344 437.417 179.539 446.15 179.781Z" fill="black"/>
<path id="Vector_3" opacity="0.1" d="M418.991 307.164C415.088 309.709 412.716 313.958 410.024 317.775C401.751 329.388 389.66 337.723 375.863 341.325C376.876 341.368 377.889 341.394 378.91 341.386C397.561 341.204 415.728 331.294 426.469 316.044C429.16 312.227 431.532 307.978 435.435 305.433L436.11 305.018C430 304.178 424.002 303.884 418.991 307.164Z" fill="black"/>
<path id="Vector_4" opacity="0.1" d="M591.604 174.458C586.68 167.309 578.743 162.757 570.564 159.84C559.538 155.911 547.378 154.569 536.049 157.521C535.789 157.581 535.538 157.659 535.287 157.728C541.718 158.087 548.062 159.382 554.12 161.571C562.299 164.488 570.235 169.04 575.16 176.189C580.085 183.338 581.348 193.499 576.519 200.683C571.932 207.529 564.515 204.404 559.659 208.619C555.211 212.471 554.83 218.313 551.567 223.203C545.448 232.351 536.931 239.647 526.329 242.417C529.973 241.984 533.816 242.036 537.451 241.655C550.554 240.296 560.897 232.135 568.011 221.472C571.274 216.582 571.655 210.74 576.104 206.888C580.959 202.673 588.376 205.798 592.963 198.952C597.801 191.734 596.546 181.607 591.604 174.458Z" fill="black"/>
<path id="Vector_5" opacity="0.1" d="M521.015 243.386C513.892 244.13 505.938 243.196 500.243 247.601C493.241 253.062 493.579 263.457 491.813 272.155C488.775 287.362 476.434 299.903 461.781 304.568L462.811 304.663C483.505 306.351 504.207 290.815 508.327 270.433C510.058 261.734 509.755 251.34 516.757 245.879C518.365 244.676 520.19 243.794 522.131 243.282C521.742 243.291 521.387 243.351 521.015 243.386Z" fill="black"/>
</g>
</g>
<g id="upper_body">
<path id="Vector_6" d="M730.135 167.993C730.135 167.993 709.363 209.537 702.439 225.116C695.515 240.694 632.334 264.063 623.68 264.928C621.358 265.246 619.196 266.288 617.5 267.905C612.61 272.233 609.832 279.641 609.832 279.641C609.832 279.641 613.294 303.01 608.966 341.957C608.88 342.71 608.802 343.463 608.732 344.19C604.959 381.25 612.861 389.992 612.861 389.992C612.861 389.992 528.908 422.015 531.505 380.471C532.318 367.394 532.197 357.839 531.392 349.85C530.511 341.672 528.848 333.598 526.424 325.737C524.373 318.563 521.924 310.695 519.388 299.981C518.167 294.634 516.559 289.384 514.576 284.272C514.515 284.116 514.455 283.96 514.403 283.813C510.075 273.072 505.748 269.602 503.272 268.477C500.935 267.46 498.708 266.207 496.625 264.738C488.628 258.965 471.466 246.026 456.181 230.741C435.409 209.969 414.637 160.636 414.637 160.636C414.637 160.636 408.579 132.075 422.427 108.707C436.275 85.3387 430.216 154.578 430.216 154.578C430.216 154.578 455.316 188.332 461.374 203.911C464.49 211.925 469.44 216.028 473.491 218.157C480.183 221.64 486.59 225.646 492.653 230.135C496.75 233.232 501.056 236.043 505.54 238.548C515.216 243.741 526.805 249.6 536.464 251.141C537.972 251.39 539.497 251.52 541.025 251.53C541.75 251.553 542.471 251.409 543.131 251.109C543.792 250.809 544.374 250.361 544.833 249.799C547.43 246.744 547.369 240.166 546.772 234.757C546.453 231.955 545.979 229.172 545.353 226.422C545.353 226.422 573.481 208.68 572.616 230.317C572.481 232.708 572.703 235.106 573.273 237.431C573.734 239.566 574.753 241.54 576.226 243.152C577.7 244.764 579.575 245.956 581.66 246.606C585.037 247.596 588.611 247.712 592.046 246.943C593.117 246.76 594.151 246.407 595.11 245.896C597.706 244.165 623.671 236.376 631.46 235.51C639.25 234.645 678.197 215.604 678.197 215.604L720.606 156.75C720.606 156.75 719.74 122.131 737.05 108.283C754.36 94.435 730.135 167.993 730.135 167.993Z" fill="#FABDBD"/>
<g id="Group_2" opacity="0.5">
<path id="Vector_7" opacity="0.1" d="M608.732 338.997C607.976 345.952 607.644 352.946 607.737 359.942C607.824 355.372 608.127 350.153 608.732 344.19C608.802 343.463 608.88 342.71 608.966 341.957C610.48 328.628 611.203 315.221 611.13 301.807C610.996 313.488 610.274 325.155 608.966 336.764C608.914 337.517 608.802 338.27 608.732 338.997Z" fill="black"/>
<path id="Vector_8" opacity="0.1" d="M546.253 225.868C545.673 226.206 545.387 226.414 545.387 226.414C546.228 230.116 546.784 233.878 547.049 237.665C547.224 233.716 546.956 229.759 546.253 225.868V225.868Z" fill="black"/>
<path id="Vector_9" opacity="0.1" d="M430.623 149.878C431.047 143.82 431.679 132.958 431.558 123.299C431.411 136.212 430.26 149.385 430.26 149.385L430.623 149.878Z" fill="black"/>
<path id="Vector_10" opacity="0.1" d="M531.565 379.458C531.565 379.796 531.565 380.134 531.505 380.471C528.908 422.015 612.861 389.992 612.861 389.992C611.879 388.665 611.138 387.177 610.671 385.595C598.026 390.095 534.482 411.023 531.565 379.458Z" fill="black"/>
<path id="Vector_11" opacity="0.1" d="M730.135 162.8C730.135 162.8 709.363 204.344 702.439 219.923C695.515 235.501 632.334 258.87 623.68 259.735C621.358 260.053 619.196 261.095 617.5 262.712C612.61 267.04 609.832 274.449 609.832 274.449C609.832 274.449 610.039 275.859 610.29 278.542C611.26 276.318 613.752 271.212 617.5 267.905C619.196 266.288 621.358 265.246 623.68 264.928C632.334 264.063 695.515 240.694 702.439 225.116C709.363 209.537 730.135 167.993 730.135 167.993C730.135 167.993 744.77 123.55 743.161 110.256C741.828 127.289 730.135 162.8 730.135 162.8Z" fill="black"/>
<path id="Vector_12" opacity="0.1" d="M531.392 344.657C530.511 336.479 528.848 328.405 526.424 320.545C524.373 313.37 521.924 305.502 519.388 294.788C518.167 289.441 516.559 284.191 514.576 279.079C514.515 278.923 514.455 278.767 514.403 278.62C510.075 267.879 505.748 264.409 503.272 263.284C500.935 262.267 498.708 261.014 496.625 259.545C488.628 253.772 471.466 240.833 456.181 225.548C435.409 204.776 414.637 155.443 414.637 155.443C413.87 151.279 413.441 147.059 413.357 142.825C413.145 148.791 413.575 154.762 414.637 160.636C414.637 160.636 435.409 209.969 456.181 230.741C471.466 246.026 488.628 258.965 496.625 264.738C498.724 266.21 500.969 267.463 503.324 268.477C505.791 269.602 510.11 273.072 514.455 283.813C514.506 283.96 514.567 284.116 514.628 284.272C516.602 289.385 518.202 294.635 519.414 299.98C521.95 310.695 524.399 318.563 526.45 325.737C528.874 333.598 530.537 341.672 531.418 349.85C531.782 353.468 531.998 357.406 532.059 361.837C532.164 356.102 531.941 350.366 531.392 344.657Z" fill="black"/>
</g>
<path id="Vector_13" d="M617.11 307.06C615.789 309.245 614.632 311.524 613.648 313.88C612.342 317.515 612.333 321.471 612.091 325.322C611.745 330.727 610.923 336.091 609.633 341.351C609.424 342.32 609.134 343.269 608.767 344.19C608.509 344.809 608.168 345.392 607.754 345.921C607.293 346.485 606.751 346.978 606.145 347.383C605.216 348.003 604.234 348.539 603.211 348.985C591.163 354.61 578.025 359.578 564.878 357.64C559.32 356.668 553.942 354.859 548.927 352.273C544.167 349.963 538.784 347.219 533.85 349.14C533.093 349.525 532.277 349.779 531.435 349.893C531.273 349.896 531.11 349.882 530.951 349.85C529.324 349.539 529.324 344.051 528.952 342.433C527.532 336.219 527.316 331.181 526.468 325.781C526.017 322.794 525.319 319.85 524.382 316.979C520.92 306.506 519.873 295.341 519.873 284.367C519.873 283.822 515.978 284.367 514.68 284.315C514.351 284.315 514.169 284.263 514.247 284.151C514.322 284.043 514.409 283.944 514.506 283.856C514.96 283.488 515.489 283.225 516.056 283.086L517.077 282.783C522.426 281.269 528.328 280.637 532.327 276.872C536.481 272.986 537.52 266.78 537.338 261.103C537.286 259.276 536.395 254.845 536.542 251.167C538.05 251.416 539.575 251.546 541.103 251.556C541.828 251.579 542.549 251.435 543.209 251.135C543.869 250.835 544.452 250.387 544.911 249.825C546.355 252.621 547.604 255.513 548.65 258.48C550.121 262.098 551.247 265.906 553.402 269.178C556.864 274.509 563.251 278.014 569.604 277.478C575.956 276.941 581.868 272.06 583.001 265.794C583.997 260.298 581.686 252.387 581.738 246.675C585.115 247.666 588.689 247.782 592.124 247.012C592.27 247.365 592.394 247.726 592.496 248.094C594.443 254.776 597.04 262.444 603.574 264.816C607.798 266.339 612.792 265.196 616.695 267.412C616.995 267.585 617.284 267.775 617.561 267.983C618.462 268.653 619.238 269.477 619.854 270.415C621.458 273.062 622.41 276.053 622.632 279.139C623.632 288.789 621.708 298.517 617.11 307.06V307.06Z" fill="#F0A93E"/>
<path id="Vector_14" opacity="0.1" d="M573.273 237.423C568.956 239.087 564.307 239.712 559.704 239.247C555.1 238.783 550.67 237.242 546.772 234.748C546.453 231.946 545.979 229.164 545.353 226.414C545.353 226.414 573.481 208.671 572.616 230.308C572.481 232.699 572.703 235.097 573.273 237.423V237.423Z" fill="black"/>
<path id="Vector_15" d="M562.654 237.665C578.906 237.665 592.08 224.49 592.08 208.238C592.08 191.987 578.906 178.812 562.654 178.812C546.402 178.812 533.227 191.987 533.227 208.238C533.227 224.49 546.402 237.665 562.654 237.665Z" fill="#FABDBD"/>
</g>
<g id="ribbon_right">
<path id="Vector_16" d="M511.166 281.372C511.166 281.372 568.288 245.022 745.714 283.969C923.139 322.916 1026.13 291.758 1026.13 291.758V332.436C1026.13 332.436 827.07 354.074 750.907 332.436C674.743 310.799 566.323 298.319 528.354 331.822L511.166 281.372Z" fill="#FF3A4B"/>
<path id="Vector_17" opacity="0.1" d="M511.166 281.372C511.166 281.372 568.288 245.022 745.714 283.969C923.139 322.916 1026.13 291.758 1026.13 291.758V332.436C1026.13 332.436 827.07 354.074 750.907 332.436C674.743 310.799 566.323 298.319 528.354 331.822L511.166 281.372Z" fill="black"/>
<path id="Vector_18" d="M512.897 283.103C512.897 283.103 568.288 246.753 745.714 285.7C923.139 324.647 1024.4 293.489 1024.4 293.489L1025.27 330.705C1025.27 330.705 827.935 352.343 751.772 330.705C675.609 309.068 568.054 293.991 530.085 327.494L512.897 283.103Z" fill="#FF3A4B"/>
</g>
<g id="ribbon_left">
<path id="Vector_19" d="M492.073 339.014C492.073 339.014 434.951 375.365 257.525 336.418C80.0993 297.471 88.7542 328.628 88.7542 328.628V287.95C88.7542 287.95 176.169 266.313 252.332 287.95C328.495 309.587 436.915 322.068 474.884 288.565L492.073 339.014Z" fill="#BA1A27"/>
<path id="Vector_20" opacity="0.1" d="M492.073 339.014C492.073 339.014 434.951 375.365 257.525 336.418C80.0993 297.471 88.7542 328.628 88.7542 328.628V287.95C88.7542 287.95 176.169 266.313 252.332 287.95C328.495 309.587 436.915 322.068 474.884 288.565L492.073 339.014Z" fill="black"/>
<path id="Vector_21" d="M490.342 337.283C490.342 337.283 434.951 373.634 257.525 334.687C80.0992 295.74 90.4851 326.897 90.4851 326.897L89.6196 289.681C89.6196 289.681 175.303 268.044 251.466 289.681C327.63 311.318 435.184 326.395 473.153 292.892L490.342 337.283Z" fill="#BA1A27"/>
</g>
<g id="legs">
<path id="Vector_22" d="M529.194 522.671C529.73 529.595 532.396 536.762 538.005 540.847C543.613 544.932 552.536 544.854 556.82 539.367C558.259 537.307 559.317 535.006 559.945 532.573C563.554 521.165 566.116 508.685 562.16 497.39C553.237 496.81 542.895 492.613 536.196 499.987C530.786 505.993 528.571 514.666 529.194 522.671Z" fill="#3F3D56"/>
<path id="Vector_23" d="M570.616 452.887C569.431 462.952 567.414 472.975 567.622 483.11C567.7 487.022 568.115 490.899 568.124 494.829C568.139 505.031 565.451 515.056 560.334 523.883C559.795 524.921 559.074 525.853 558.205 526.635C556.154 528.297 553.064 528.159 550.762 526.886C548.513 525.487 546.685 523.504 545.474 521.148C539.026 510.104 538.844 496.681 536.291 484.157C534.335 474.576 530.908 465.289 529.67 455.596C528.865 449.356 528.986 442.994 527.705 436.832C527.316 434.971 526.225 432.176 525.507 429.432C524.849 426.983 524.486 424.577 525.161 422.924C526.537 419.539 531.046 420.855 533.98 421.063C544.312 421.829 554.688 421.803 565.017 420.985C566.038 420.907 567.198 420.864 567.916 421.591C568.229 421.958 568.465 422.385 568.608 422.846C569.431 425.096 570.059 427.412 570.486 429.77C571.915 437.308 571.516 445.21 570.616 452.887Z" fill="#FABDBD"/>
<g id="Group_3" opacity="0.1">
<path id="Vector_24" opacity="0.1" d="M566.635 420.985C566.103 420.929 565.566 420.929 565.034 420.985C560.083 421.383 555.124 421.582 550.173 421.608C555.661 421.619 561.148 421.412 566.635 420.985Z" fill="black"/>
<path id="Vector_25" opacity="0.1" d="M552.51 526.886C550.261 525.487 548.433 523.504 547.222 521.148C540.774 510.104 540.592 496.681 538.039 484.157C536.083 474.576 532.656 465.289 531.418 455.596C530.613 449.356 530.734 442.994 529.454 436.832C529.064 434.971 527.974 432.176 527.255 429.432C526.597 426.983 526.234 424.577 526.909 422.924C527.196 422.246 527.678 421.669 528.295 421.268C528.912 420.867 529.635 420.66 530.371 420.673C528.181 420.526 526.043 420.786 525.178 422.924C524.503 424.577 524.866 426.983 525.524 429.432C526.243 432.176 527.333 434.971 527.723 436.832C529.003 442.994 528.882 449.356 529.687 455.596C530.925 465.298 534.352 474.585 536.308 484.157C538.861 496.681 539.043 510.122 545.491 521.148C546.702 523.504 548.53 525.487 550.779 526.886C552.161 527.651 553.744 527.971 555.314 527.804C554.331 527.675 553.38 527.364 552.51 526.886V526.886Z" fill="black"/>
</g>
<path id="Vector_26" d="M603.34 505.967C598.148 516.353 599.013 531.067 599.013 531.067C599.878 565.686 586.031 638.387 586.031 638.387H573.914C573.914 638.387 572.183 557.897 573.914 550.973C575.645 544.049 573.048 519.815 570.452 486.061C568.522 460.962 573.775 438.217 576.597 428.238C577.566 424.776 578.241 422.88 578.241 422.88C578.241 422.88 598.148 393.454 609.399 407.301C611.995 410.521 613.372 417.021 613.848 425.226C615.388 452.298 607.322 497.996 603.34 505.967Z" fill="#FABDBD"/>
<path id="Vector_27" opacity="0.1" d="M613.848 425.226C613.372 417.021 612.013 410.512 609.399 407.301C606.889 404.22 603.946 403.286 600.9 403.692C603.261 404.084 605.378 405.378 606.802 407.301C609.399 410.521 610.775 417.021 611.251 425.226C612.792 452.298 604.725 497.996 600.744 505.967C595.551 516.353 596.417 531.067 596.417 531.067C597.282 565.686 583.434 638.387 583.434 638.387H586.031C586.031 638.387 599.879 565.686 599.013 531.067C599.013 531.067 598.148 516.353 603.34 505.967C607.322 497.996 615.388 452.298 613.848 425.226Z" fill="black"/>
<path id="Vector_28" d="M567.613 635.228C566.646 635.987 565.81 636.899 565.138 637.929C563.588 640.854 565.787 644.351 568.141 646.679C570.495 649.007 573.334 651.5 573.334 654.814C573.334 657.48 571.317 659.765 569.058 661.184C567.847 661.946 566.323 662.915 566.574 664.352C566.662 664.716 566.818 665.059 567.033 665.365C568.972 668.333 572.408 670.073 575.887 670.731C579.366 671.389 582.958 671.103 586.498 670.817C587.028 670.836 587.546 670.657 587.952 670.315C588.209 669.97 588.345 669.551 588.341 669.121C588.515 667.286 588.402 665.348 589.207 663.694C590.332 661.436 592.92 660.284 594.4 658.259C596.477 655.49 596.192 651.638 595.404 648.271C593.673 640.941 589.821 632.58 584.04 627.5C577.341 621.666 572.088 631.013 567.613 635.228Z" fill="#3F3D56"/>
<path id="Vector_29" d="M610.264 375.278C610.264 375.278 550.545 389.992 530.639 375.278C530.639 375.278 521.984 409.032 524.581 426.342C524.581 426.342 566.99 428.939 571.317 431.535C571.317 431.535 572.183 424.611 576.51 428.073C576.51 428.073 591.224 410.763 618.054 426.342C618.054 426.342 623.247 385.664 610.264 375.278Z" fill="#F0A93E"/>
</g>
<g id="hair_top">
<path id="Vector_30" d="M537.347 213.111C536.481 207.711 535.148 200.908 539.666 197.818C541.278 196.841 543.141 196.359 545.024 196.433C554.38 196.338 563.32 202.855 572.494 200.951C575.414 200.339 578.095 198.897 580.214 196.798C582.334 194.699 583.802 192.032 584.442 189.118C585.082 186.205 584.866 183.168 583.822 180.374C582.777 177.58 580.947 175.147 578.553 173.368C574.944 170.685 570.383 169.715 565.969 168.807C554.362 166.418 542.245 164.038 530.786 167.076C519.327 170.114 508.855 180.387 509.772 192.175C510.205 197.818 513.078 202.942 516.082 207.754C518.367 211.406 527.264 228.526 531.583 228.785C537.676 229.14 537.944 216.642 537.347 213.111Z" fill="#3F3D56"/>
<path id="Vector_31" opacity="0.1" d="M578.57 173.368C577.954 172.922 577.31 172.517 576.64 172.156C578.426 174.187 579.648 176.65 580.183 179.301C580.719 181.951 580.549 184.696 579.691 187.26C578.834 189.825 577.318 192.119 575.295 193.914C573.273 195.709 570.815 196.942 568.167 197.489C558.993 199.393 550.052 192.876 540.696 192.971C538.813 192.897 536.95 193.379 535.339 194.356C530.821 197.446 532.145 204.249 533.011 209.649C533.582 213.18 533.348 225.678 527.272 225.341H527.169C528.839 227.374 530.397 228.751 531.6 228.803C537.658 229.14 537.909 216.686 537.338 213.111C536.473 207.711 535.148 200.908 539.666 197.818C541.278 196.841 543.141 196.359 545.024 196.433C554.38 196.338 563.32 202.855 572.494 200.951C575.414 200.339 578.095 198.897 580.214 196.798C582.334 194.699 583.802 192.032 584.442 189.118C585.082 186.205 584.866 183.168 583.822 180.374C582.777 177.58 580.947 175.147 578.553 173.368H578.57Z" fill="black"/>
</g>
<g id="bottom_leaf">
<g id="Vector_32">
<path d="M148.733 132.257C148.733 132.257 84.0199 105.046 75.5381 154.119C75.5381 154.119 71.1155 161.762 77.2691 168.08C77.2691 168.08 78.5933 164.696 84.8508 168.201C87.0846 169.429 89.455 170.391 91.9132 171.066C95.235 171.982 98.7647 171.794 101.97 170.529C101.97 170.529 123.253 169.378 141.151 141.535C141.151 141.535 148.819 136.792 149.209 135.018L136.382 135.883C136.382 135.883 137.36 145.274 132.055 150.908C132.055 150.908 136.772 136.342 134.504 135.927C134.045 135.84 127.727 136.68 127.727 136.68C127.727 136.68 129.363 153.003 120.803 161.45C120.803 161.45 128.748 144.841 125.287 136.974L115.827 138.8C115.827 138.8 118.423 155.971 109.059 165.968C109.059 165.968 116.753 148.312 113.784 139.337L104.714 142.383C104.714 142.383 106.904 159.191 99.0708 167.482C99.0708 167.482 105.908 146.183 102.689 143.249C102.689 143.249 94.5356 146.555 92.7874 148.442C92.7874 148.442 94.0856 160.559 89.1004 164.886C89.1004 164.886 92.1642 150.173 90.6496 149.567C90.6496 149.567 81.1725 156.698 78.2904 162.852C78.2904 162.852 81.8908 153.453 89.4552 148.139C89.4552 148.139 83.1025 147.066 78.2038 149.723C78.2038 149.723 81.484 143.482 91.7488 146.442C91.7488 146.442 99.3564 141.18 100.88 141.249C100.88 141.249 91.1689 136.922 84.1497 137.45C84.1497 137.45 91.6709 133.123 103.26 140.358L112.296 137.086C112.296 137.086 99.7546 130.656 93.4624 130.682C93.4624 130.682 101.823 127.454 114.65 136.455L123.902 134.559C123.902 134.559 113.516 128.198 106.514 126.718C106.514 126.718 114.918 125.394 126.576 134.126L132.912 133.59C132.912 133.59 125.243 129.081 122.924 127.981C120.604 126.882 120.708 126.164 120.708 126.164C126.229 127.122 131.374 129.598 135.569 133.313C135.569 133.313 148.672 133.062 148.733 132.257Z" fill="white" fill-opacity="0.7"/>
<path d="M148.733 132.257C148.733 132.257 84.0199 105.046 75.5381 154.119C75.5381 154.119 71.1155 161.762 77.2691 168.08C77.2691 168.08 78.5933 164.696 84.8508 168.201C87.0846 169.429 89.455 170.391 91.9132 171.066C95.235 171.982 98.7647 171.794 101.97 170.529C101.97 170.529 123.253 169.378 141.151 141.535C141.151 141.535 148.819 136.792 149.209 135.018L136.382 135.883C136.382 135.883 137.36 145.274 132.055 150.908C132.055 150.908 136.772 136.342 134.504 135.927C134.045 135.84 127.727 136.68 127.727 136.68C127.727 136.68 129.363 153.003 120.803 161.45C120.803 161.45 128.748 144.841 125.287 136.974L115.827 138.8C115.827 138.8 118.423 155.971 109.059 165.968C109.059 165.968 116.753 148.312 113.784 139.337L104.714 142.383C104.714 142.383 106.904 159.191 99.0708 167.482C99.0708 167.482 105.908 146.183 102.689 143.249C102.689 143.249 94.5356 146.555 92.7874 148.442C92.7874 148.442 94.0856 160.559 89.1004 164.886C89.1004 164.886 92.1642 150.173 90.6496 149.567C90.6496 149.567 81.1725 156.698 78.2904 162.852C78.2904 162.852 81.8908 153.453 89.4552 148.139C89.4552 148.139 83.1025 147.066 78.2038 149.723C78.2038 149.723 81.484 143.482 91.7488 146.442C91.7488 146.442 99.3564 141.18 100.88 141.249C100.88 141.249 91.1689 136.922 84.1497 137.45C84.1497 137.45 91.6709 133.123 103.26 140.358L112.296 137.086C112.296 137.086 99.7546 130.656 93.4624 130.682C93.4624 130.682 101.823 127.454 114.65 136.455L123.902 134.559C123.902 134.559 113.516 128.198 106.514 126.718C106.514 126.718 114.918 125.394 126.576 134.126L132.912 133.59C132.912 133.59 125.243 129.081 122.924 127.981C120.604 126.882 120.708 126.164 120.708 126.164C126.229 127.122 131.374 129.598 135.569 133.313C135.569 133.313 148.672 133.062 148.733 132.257Z" fill="#F7FF00" fill-opacity="0.1"/>
</g>
</g>
<g id="top_leaf">
<g id="Vector_33">
<path d="M146.344 83.4779C146.344 83.4779 123.374 30.4493 90.4073 54.7696C90.4073 54.7696 83.4228 56.7949 83.4834 64.0304C83.4834 64.0304 86.201 62.7754 87.9147 68.4184C88.5554 70.4223 89.4267 72.3451 90.5111 74.1479C91.9454 76.5729 94.1296 78.4655 96.734 79.5399V79.5399C96.734 79.5399 110.028 90.9817 136.547 84.6377C136.547 84.6377 143.808 86.1956 145.054 85.356L136.945 78.5533C136.945 78.5533 132.185 84.6896 125.797 84.9925C125.797 84.9925 136.901 79.0207 135.785 77.4801C135.56 77.1685 131.336 74.07 131.336 74.07C131.336 74.07 123.002 84.6983 113.161 84.8627C113.161 84.8627 127.346 79.514 129.77 72.8757L123.114 68.5482C123.114 68.5482 114.857 80.2237 103.615 80.8295C103.615 80.8295 118.241 74.7711 121.591 67.7087L114.468 64.3506C114.468 64.3506 106.194 75.602 96.8379 76.0261C96.8379 76.0261 113.031 67.2673 112.78 63.6928C112.78 63.6928 106.055 61.0098 103.926 61.1656C103.926 61.1656 97.8072 69.0848 92.346 68.8598C92.346 68.8598 102.55 61.858 101.988 60.6376C101.988 60.6376 92.2941 59.4779 87.0751 61.5031C87.0751 61.5031 94.5703 57.9719 102.091 59.1317C102.091 59.1317 98.9324 54.8648 94.527 53.6791C94.527 53.6791 100.032 51.8356 104.446 59.4432C104.446 59.4432 111.958 60.6463 112.832 61.5464C112.832 61.5464 109.543 53.4194 105.043 49.7584C105.043 49.7584 111.967 51.4894 114.736 62.3686L121.963 65.5796C121.963 65.5796 118.181 54.6138 114.381 51.0566C114.381 51.0566 121.193 53.8955 123.685 66.5489L130.254 70.6946C130.254 70.6946 127.701 61.0011 124.395 56.1717C124.395 56.1717 130.142 60.1616 132.098 71.9929L136.166 75.2817C136.166 75.2817 134.175 68.2366 133.422 66.2633C132.669 64.29 133.145 63.9265 133.145 63.9265C135.874 67.6436 137.519 72.0447 137.897 76.6406C137.897 76.6406 145.877 83.928 146.344 83.4779Z" fill="white" fill-opacity="0.7"/>
<path d="M146.344 83.4779C146.344 83.4779 123.374 30.4493 90.4073 54.7696C90.4073 54.7696 83.4228 56.7949 83.4834 64.0304C83.4834 64.0304 86.201 62.7754 87.9147 68.4184C88.5554 70.4223 89.4267 72.3451 90.5111 74.1479C91.9454 76.5729 94.1296 78.4655 96.734 79.5399V79.5399C96.734 79.5399 110.028 90.9817 136.547 84.6377C136.547 84.6377 143.808 86.1956 145.054 85.356L136.945 78.5533C136.945 78.5533 132.185 84.6896 125.797 84.9925C125.797 84.9925 136.901 79.0207 135.785 77.4801C135.56 77.1685 131.336 74.07 131.336 74.07C131.336 74.07 123.002 84.6983 113.161 84.8627C113.161 84.8627 127.346 79.514 129.77 72.8757L123.114 68.5482C123.114 68.5482 114.857 80.2237 103.615 80.8295C103.615 80.8295 118.241 74.7711 121.591 67.7087L114.468 64.3506C114.468 64.3506 106.194 75.602 96.8379 76.0261C96.8379 76.0261 113.031 67.2673 112.78 63.6928C112.78 63.6928 106.055 61.0098 103.926 61.1656C103.926 61.1656 97.8072 69.0848 92.346 68.8598C92.346 68.8598 102.55 61.858 101.988 60.6376C101.988 60.6376 92.2941 59.4779 87.0751 61.5031C87.0751 61.5031 94.5703 57.9719 102.091 59.1317C102.091 59.1317 98.9324 54.8648 94.527 53.6791C94.527 53.6791 100.032 51.8356 104.446 59.4432C104.446 59.4432 111.958 60.6463 112.832 61.5464C112.832 61.5464 109.543 53.4194 105.043 49.7584C105.043 49.7584 111.967 51.4894 114.736 62.3686L121.963 65.5796C121.963 65.5796 118.181 54.6138 114.381 51.0566C114.381 51.0566 121.193 53.8955 123.685 66.5489L130.254 70.6946C130.254 70.6946 127.701 61.0011 124.395 56.1717C124.395 56.1717 130.142 60.1616 132.098 71.9929L136.166 75.2817C136.166 75.2817 134.175 68.2366 133.422 66.2633C132.669 64.29 133.145 63.9265 133.145 63.9265C135.874 67.6436 137.519 72.0447 137.897 76.6406C137.897 76.6406 145.877 83.928 146.344 83.4779Z" fill="#F7FF00" fill-opacity="0.1"/>
</g>
</g>
</g>
<defs>
<linearGradient id="paint0_linear" x1="458.009" y1="88.3134" x2="922.957" y2="678.325" gradientUnits="userSpaceOnUse">
<stop stop-color="#F7FF00"/>
<stop offset="0.958664" stop-color="white" stop-opacity="0"/>
</linearGradient>
</defs>
</svg>
